<svg xmlns="http://www.w3.org/2000/svg" xmlns:xlink="http://www.w3.org/1999/xlink" version="1.1" x="0px" y="0px" viewBox="0 0 100 100" enable-background="new 0 0 100 100" xml:space="preserve"><g><g><path d="M-319.568,77.76l-19.414-21.898c-2.004-2.25-1.574-5.531,0.965-7.313c2.535-1.781,6.215-1.398,8.223,0.859l9.848,11.109    l29.605-36.133c1.902-2.32,5.57-2.844,8.18-1.145c2.613,1.695,3.184,4.953,1.281,7.281L-319.568,77.76L-319.568,77.76z"></path></g><polygon points="-164.797,24.793 -199.441,53.246 -215.281,41.574 -221.66,48.449 -202.105,71.195 -198.656,75.207    -195.063,71.324 -158.34,31.645  "></polygon><path d="M-69.998,19.74c-16.711,0-30.262,13.547-30.262,30.262c0,16.711,13.551,30.258,30.262,30.258   c16.707,0,30.258-13.547,30.258-30.258C-39.74,33.287-53.291,19.74-69.998,19.74z M-71.424,63.08l-2.148,2.32l-2.059-2.398   l-11.68-13.586l3.805-4.105l9.465,6.973l20.688-16.996l3.859,4.094L-71.424,63.08z"></path><path d="M-399.114,29.018c-1.594-1.711-3.633-2.645-5.453-2.648c-1.078,0-2.094,0.336-2.859,1.051l-8.493,7.923l0-0.005   l-11.555,10.773c-0.203,0.188-0.344,0.395-0.477,0.582l-11.086,10.328l-13.061-14.016c-0.801-0.855-1.938-1.262-3.164-1.262   c-1.727,0-3.652,0.789-5.246,2.273c-1.711,1.598-2.648,3.633-2.652,5.453c0,1.082,0.34,2.094,1.059,2.863l11.973,12.844l0,0   l6.717,7.203c0.789,0.852,1.914,1.25,3.133,1.25c0.539,0,1.086-0.078,1.648-0.223c0.102,0.004,0.211,0.008,0.313,0.008   c1.078,0.004,2.086-0.316,2.859-1.031l20.047-18.688c0.195-0.188,0.344-0.398,0.477-0.586l16.828-15.688   c0.859-0.801,1.266-1.934,1.266-3.16C-396.841,32.537-397.63,30.615-399.114,29.018z"></path><g><path d="M306,26h-8c0-4.414-3.578-8-8-8s-8,3.586-8,8h-8v8h32V26z M290,30c-2.211,0-4-1.789-4-4c0-2.207,1.789-4,4-4s4,1.793,4,4    C294,28.211,292.211,30,290,30z"></path><path d="M310,26v12h-40V26h-8v56h56V26H310z M288.148,73.457l-2.836-2.828L274,59.313l5.656-5.656l8.492,8.488L304.289,46    l5.656,5.656L288.148,73.457z"></path></g><path d="M77.836,23.236c-2.617-1.695-6.273-1.172-8.18,1.148L40.055,60.518l-9.852-11.109c-2.016-2.258-5.688-2.641-8.219-0.859   c-2.547,1.781-2.969,5.063-0.969,7.313L40.43,77.76l38.688-47.242C81.024,28.189,80.454,24.932,77.836,23.236z"></path><path d="M200.707,24.34l-4.5-4.289l-9.883,11.379c-5.008-4.637-11.672-7.504-19.016-7.504c-15.445,0-28.016,12.57-28.016,28.016   s12.57,28.008,28.016,28.008s28.008-12.563,28.008-28.008c0-5.531-1.633-10.68-4.406-15.027L200.707,24.34z M191.316,51.941   c0,13.242-10.773,24.008-24.008,24.008c-13.242,0-24.016-10.766-24.016-24.008s10.773-24.016,24.016-24.016   c6.336,0,12.094,2.492,16.391,6.52l-17.305,19.918l-12.867-12.867l-4.289,8.578l13.336,14.922l3.109,3.883l3.242-3.758   l19.352-24.836C190.207,43.738,191.316,47.715,191.316,51.941z"></path></g></svg>